<?xml version="1.0" encoding="utf-8" standalone="no"?>
<!DOCTYPE svg PUBLIC "-//W3C//DTD SVG 1.1//EN"
  "http://www.w3.org/Graphics/SVG/1.1/DTD/svg11.dtd">
<!-- Created with matplotlib (http://matplotlib.org/) -->
<svg height="290.58375pt" version="1.1" viewBox="0 0 404.9725 290.58375" width="404.9725pt" xmlns="http://www.w3.org/2000/svg" xmlns:xlink="http://www.w3.org/1999/xlink">
 <defs>
  <style type="text/css">
*{stroke-linecap:butt;stroke-linejoin:round;}
  </style>
 </defs>
 <g id="figure_1">
  <g id="patch_1">
   <path d="M 0 290.58375 
L 404.9725 290.58375 
L 404.9725 0 
L 0 0 
z
" style="fill:#ffffff;"/>
  </g>
  <g id="axes_1">
   <g id="patch_2">
    <path d="M 10.7 244.317188 
L 345.5 244.317188 
L 345.5 26.877187 
L 10.7 26.877187 
z
" style="fill:#f0f0f0;"/>
   </g>
   <g id="patch_3">
    <path clip-path="url(#pa983050e79)" d="M 330.434 146.469188 
C 332.2098 146.469188 333.913107 140.283258 335.168787 129.273778 
C 336.424467 118.264298 337.13 103.330143 337.13 87.760388 
C 337.13 72.190632 336.424467 57.256477 335.168787 46.246997 
C 333.913107 35.237517 332.2098 29.051587 330.434 29.051587 
C 328.6582 29.051587 326.954893 35.237517 325.699213 46.246997 
C 324.443533 57.256477 323.738 72.190632 323.738 87.760388 
C 323.738 103.330143 324.443533 118.264298 325.699213 129.273778 
C 326.954893 140.283258 328.6582 146.469188 330.434 146.469188 
z
" style="fill:none;opacity:0.8;stroke:#000000;stroke-linejoin:miter;stroke-width:0.8;"/>
   </g>
   <g id="matplotlib.axis_1">
    <g id="xtick_1">
     <g id="line2d_1">
      <defs>
       <path d="M 0 0 
L 0 3.5 
" id="mcc262f0fd6" style="stroke:#000000;stroke-width:0.8;"/>
      </defs>
      <g>
       <use style="stroke:#000000;stroke-width:0.8;" x="330.666341" xlink:href="#mcc262f0fd6" y="244.317188"/>
      </g>
     </g>
     <g id="text_1">
      <!-- 0 -->
      <defs>
       <path d="M 31.78125 66.40625 
Q 24.171875 66.40625 20.328125 58.90625 
Q 16.5 51.421875 16.5 36.375 
Q 16.5 21.390625 20.328125 13.890625 
Q 24.171875 6.390625 31.78125 6.390625 
Q 39.453125 6.390625 43.28125 13.890625 
Q 47.125 21.390625 47.125 36.375 
Q 47.125 51.421875 43.28125 58.90625 
Q 39.453125 66.40625 31.78125 66.40625 
z
M 31.78125 74.21875 
Q 44.046875 74.21875 50.515625 64.515625 
Q 56.984375 54.828125 56.984375 36.375 
Q 56.984375 17.96875 50.515625 8.265625 
Q 44.046875 -1.421875 31.78125 -1.421875 
Q 19.53125 -1.421875 13.0625 8.265625 
Q 6.59375 17.96875 6.59375 36.375 
Q 6.59375 54.828125 13.0625 64.515625 
Q 19.53125 74.21875 31.78125 74.21875 
z
" id="DejaVuSans-30"/>
      </defs>
      <g transform="translate(326.212591 261.955)scale(0.14 -0.14)">
       <use xlink:href="#DejaVuSans-30"/>
      </g>
     </g>
    </g>
    <g id="xtick_2">
     <g id="line2d_2">
      <g>
       <use style="stroke:#000000;stroke-width:0.8;" x="254.523274" xlink:href="#mcc262f0fd6" y="244.317188"/>
      </g>
     </g>
     <g id="text_2">
      <!-- 200 -->
      <defs>
       <path d="M 19.1875 8.296875 
L 53.609375 8.296875 
L 53.609375 0 
L 7.328125 0 
L 7.328125 8.296875 
Q 12.9375 14.109375 22.625 23.890625 
Q 32.328125 33.6875 34.8125 36.53125 
Q 39.546875 41.84375 41.421875 45.53125 
Q 43.3125 49.21875 43.3125 52.78125 
Q 43.3125 58.59375 39.234375 62.25 
Q 35.15625 65.921875 28.609375 65.921875 
Q 23.96875 65.921875 18.8125 64.3125 
Q 13.671875 62.703125 7.8125 59.421875 
L 7.8125 69.390625 
Q 13.765625 71.78125 18.9375 73 
Q 24.125 74.21875 28.421875 74.21875 
Q 39.75 74.21875 46.484375 68.546875 
Q 53.21875 62.890625 53.21875 53.421875 
Q 53.21875 48.921875 51.53125 44.890625 
Q 49.859375 40.875 45.40625 35.40625 
Q 44.1875 33.984375 37.640625 27.21875 
Q 31.109375 20.453125 19.1875 8.296875 
z
" id="DejaVuSans-32"/>
      </defs>
      <g transform="translate(241.162024 261.955)scale(0.14 -0.14)">
       <use xlink:href="#DejaVuSans-32"/>
       <use x="63.623047" xlink:href="#DejaVuSans-30"/>
       <use x="127.246094" xlink:href="#DejaVuSans-30"/>
      </g>
     </g>
    </g>
    <g id="xtick_3">
     <g id="line2d_3">
      <g>
       <use style="stroke:#000000;stroke-width:0.8;" x="178.380206" xlink:href="#mcc262f0fd6" y="244.317188"/>
      </g>
     </g>
     <g id="text_3">
      <!-- 400 -->
      <defs>
       <path d="M 37.796875 64.3125 
L 12.890625 25.390625 
L 37.796875 25.390625 
z
M 35.203125 72.90625 
L 47.609375 72.90625 
L 47.609375 25.390625 
L 58.015625 25.390625 
L 58.015625 17.1875 
L 47.609375 17.1875 
L 47.609375 0 
L 37.796875 0 
L 37.796875 17.1875 
L 4.890625 17.1875 
L 4.890625 26.703125 
z
" id="DejaVuSans-34"/>
      </defs>
      <g transform="translate(165.018956 261.955)scale(0.14 -0.14)">
       <use xlink:href="#DejaVuSans-34"/>
       <use x="63.623047" xlink:href="#DejaVuSans-30"/>
       <use x="127.246094" xlink:href="#DejaVuSans-30"/>
      </g>
     </g>
    </g>
    <g id="xtick_4">
     <g id="line2d_4">
      <g>
       <use style="stroke:#000000;stroke-width:0.8;" x="102.237139" xlink:href="#mcc262f0fd6" y="244.317188"/>
      </g>
     </g>
     <g id="text_4">
      <!-- 600 -->
      <defs>
       <path d="M 33.015625 40.375 
Q 26.375 40.375 22.484375 35.828125 
Q 18.609375 31.296875 18.609375 23.390625 
Q 18.609375 15.53125 22.484375 10.953125 
Q 26.375 6.390625 33.015625 6.390625 
Q 39.65625 6.390625 43.53125 10.953125 
Q 47.40625 15.53125 47.40625 23.390625 
Q 47.40625 31.296875 43.53125 35.828125 
Q 39.65625 40.375 33.015625 40.375 
z
M 52.59375 71.296875 
L 52.59375 62.3125 
Q 48.875 64.0625 45.09375 64.984375 
Q 41.3125 65.921875 37.59375 65.921875 
Q 27.828125 65.921875 22.671875 59.328125 
Q 17.53125 52.734375 16.796875 39.40625 
Q 19.671875 43.65625 24.015625 45.921875 
Q 28.375 48.1875 33.59375 48.1875 
Q 44.578125 48.1875 50.953125 41.515625 
Q 57.328125 34.859375 57.328125 23.390625 
Q 57.328125 12.15625 50.6875 5.359375 
Q 44.046875 -1.421875 33.015625 -1.421875 
Q 20.359375 -1.421875 13.671875 8.265625 
Q 6.984375 17.96875 6.984375 36.375 
Q 6.984375 53.65625 15.1875 63.9375 
Q 23.390625 74.21875 37.203125 74.21875 
Q 40.921875 74.21875 44.703125 73.484375 
Q 48.484375 72.75 52.59375 71.296875 
z
" id="DejaVuSans-36"/>
      </defs>
      <g transform="translate(88.875889 261.955)scale(0.14 -0.14)">
       <use xlink:href="#DejaVuSans-36"/>
       <use x="63.623047" xlink:href="#DejaVuSans-30"/>
       <use x="127.246094" xlink:href="#DejaVuSans-30"/>
      </g>
     </g>
    </g>
    <g id="xtick_5">
     <g id="line2d_5">
      <g>
       <use style="stroke:#000000;stroke-width:0.8;" x="26.094072" xlink:href="#mcc262f0fd6" y="244.317188"/>
      </g>
     </g>
     <g id="text_5">
      <!-- 800 -->
      <defs>
       <path d="M 31.78125 34.625 
Q 24.75 34.625 20.71875 30.859375 
Q 16.703125 27.09375 16.703125 20.515625 
Q 16.703125 13.921875 20.71875 10.15625 
Q 24.75 6.390625 31.78125 6.390625 
Q 38.8125 6.390625 42.859375 10.171875 
Q 46.921875 13.96875 46.921875 20.515625 
Q 46.921875 27.09375 42.890625 30.859375 
Q 38.875 34.625 31.78125 34.625 
z
M 21.921875 38.8125 
Q 15.578125 40.375 12.03125 44.71875 
Q 8.5 49.078125 8.5 55.328125 
Q 8.5 64.0625 14.71875 69.140625 
Q 20.953125 74.21875 31.78125 74.21875 
Q 42.671875 74.21875 48.875 69.140625 
Q 55.078125 64.0625 55.078125 55.328125 
Q 55.078125 49.078125 51.53125 44.71875 
Q 48 40.375 41.703125 38.8125 
Q 48.828125 37.15625 52.796875 32.3125 
Q 56.78125 27.484375 56.78125 20.515625 
Q 56.78125 9.90625 50.3125 4.234375 
Q 43.84375 -1.421875 31.78125 -1.421875 
Q 19.734375 -1.421875 13.25 4.234375 
Q 6.78125 9.90625 6.78125 20.515625 
Q 6.78125 27.484375 10.78125 32.3125 
Q 14.796875 37.15625 21.921875 38.8125 
z
M 18.3125 54.390625 
Q 18.3125 48.734375 21.84375 45.5625 
Q 25.390625 42.390625 31.78125 42.390625 
Q 38.140625 42.390625 41.71875 45.5625 
Q 45.3125 48.734375 45.3125 54.390625 
Q 45.3125 60.0625 41.71875 63.234375 
Q 38.140625 66.40625 31.78125 66.40625 
Q 25.390625 66.40625 21.84375 63.234375 
Q 18.3125 60.0625 18.3125 54.390625 
z
" id="DejaVuSans-38"/>
      </defs>
      <g transform="translate(12.732822 261.955)scale(0.14 -0.14)">
       <use xlink:href="#DejaVuSans-38"/>
       <use x="63.623047" xlink:href="#DejaVuSans-30"/>
       <use x="127.246094" xlink:href="#DejaVuSans-30"/>
      </g>
     </g>
    </g>
    <g id="text_6">
     <!-- Thousands of years ago -->
     <defs>
      <path d="M -0.296875 72.90625 
L 61.375 72.90625 
L 61.375 64.59375 
L 35.5 64.59375 
L 35.5 0 
L 25.59375 0 
L 25.59375 64.59375 
L -0.296875 64.59375 
z
" id="DejaVuSans-54"/>
      <path d="M 54.890625 33.015625 
L 54.890625 0 
L 45.90625 0 
L 45.90625 32.71875 
Q 45.90625 40.484375 42.875 44.328125 
Q 39.84375 48.1875 33.796875 48.1875 
Q 26.515625 48.1875 22.3125 43.546875 
Q 18.109375 38.921875 18.109375 30.90625 
L 18.109375 0 
L 9.078125 0 
L 9.078125 75.984375 
L 18.109375 75.984375 
L 18.109375 46.1875 
Q 21.34375 51.125 25.703125 53.5625 
Q 30.078125 56 35.796875 56 
Q 45.21875 56 50.046875 50.171875 
Q 54.890625 44.34375 54.890625 33.015625 
z
" id="DejaVuSans-68"/>
      <path d="M 30.609375 48.390625 
Q 23.390625 48.390625 19.1875 42.75 
Q 14.984375 37.109375 14.984375 27.296875 
Q 14.984375 17.484375 19.15625 11.84375 
Q 23.34375 6.203125 30.609375 6.203125 
Q 37.796875 6.203125 41.984375 11.859375 
Q 46.1875 17.53125 46.1875 27.296875 
Q 46.1875 37.015625 41.984375 42.703125 
Q 37.796875 48.390625 30.609375 48.390625 
z
M 30.609375 56 
Q 42.328125 56 49.015625 48.375 
Q 55.71875 40.765625 55.71875 27.296875 
Q 55.71875 13.875 49.015625 6.21875 
Q 42.328125 -1.421875 30.609375 -1.421875 
Q 18.84375 -1.421875 12.171875 6.21875 
Q 5.515625 13.875 5.515625 27.296875 
Q 5.515625 40.765625 12.171875 48.375 
Q 18.84375 56 30.609375 56 
z
" id="DejaVuSans-6f"/>
      <path d="M 8.5 21.578125 
L 8.5 54.6875 
L 17.484375 54.6875 
L 17.484375 21.921875 
Q 17.484375 14.15625 20.5 10.265625 
Q 23.53125 6.390625 29.59375 6.390625 
Q 36.859375 6.390625 41.078125 11.03125 
Q 45.3125 15.671875 45.3125 23.6875 
L 45.3125 54.6875 
L 54.296875 54.6875 
L 54.296875 0 
L 45.3125 0 
L 45.3125 8.40625 
Q 42.046875 3.421875 37.71875 1 
Q 33.40625 -1.421875 27.6875 -1.421875 
Q 18.265625 -1.421875 13.375 4.4375 
Q 8.5 10.296875 8.5 21.578125 
z
M 31.109375 56 
z
" id="DejaVuSans-75"/>
      <path d="M 44.28125 53.078125 
L 44.28125 44.578125 
Q 40.484375 46.53125 36.375 47.5 
Q 32.28125 48.484375 27.875 48.484375 
Q 21.1875 48.484375 17.84375 46.4375 
Q 14.5 44.390625 14.5 40.28125 
Q 14.5 37.15625 16.890625 35.375 
Q 19.28125 33.59375 26.515625 31.984375 
L 29.59375 31.296875 
Q 39.15625 29.25 43.1875 25.515625 
Q 47.21875 21.78125 47.21875 15.09375 
Q 47.21875 7.46875 41.1875 3.015625 
Q 35.15625 -1.421875 24.609375 -1.421875 
Q 20.21875 -1.421875 15.453125 -0.5625 
Q 10.6875 0.296875 5.421875 2 
L 5.421875 11.28125 
Q 10.40625 8.6875 15.234375 7.390625 
Q 20.0625 6.109375 24.8125 6.109375 
Q 31.15625 6.109375 34.5625 8.28125 
Q 37.984375 10.453125 37.984375 14.40625 
Q 37.984375 18.0625 35.515625 20.015625 
Q 33.0625 21.96875 24.703125 23.78125 
L 21.578125 24.515625 
Q 13.234375 26.265625 9.515625 29.90625 
Q 5.8125 33.546875 5.8125 39.890625 
Q 5.8125 47.609375 11.28125 51.796875 
Q 16.75 56 26.8125 56 
Q 31.78125 56 36.171875 55.265625 
Q 40.578125 54.546875 44.28125 53.078125 
z
" id="DejaVuSans-73"/>
      <path d="M 34.28125 27.484375 
Q 23.390625 27.484375 19.1875 25 
Q 14.984375 22.515625 14.984375 16.5 
Q 14.984375 11.71875 18.140625 8.90625 
Q 21.296875 6.109375 26.703125 6.109375 
Q 34.1875 6.109375 38.703125 11.40625 
Q 43.21875 16.703125 43.21875 25.484375 
L 43.21875 27.484375 
z
M 52.203125 31.203125 
L 52.203125 0 
L 43.21875 0 
L 43.21875 8.296875 
Q 40.140625 3.328125 35.546875 0.953125 
Q 30.953125 -1.421875 24.3125 -1.421875 
Q 15.921875 -1.421875 10.953125 3.296875 
Q 6 8.015625 6 15.921875 
Q 6 25.140625 12.171875 29.828125 
Q 18.359375 34.515625 30.609375 34.515625 
L 43.21875 34.515625 
L 43.21875 35.40625 
Q 43.21875 41.609375 39.140625 45 
Q 35.0625 48.390625 27.6875 48.390625 
Q 23 48.390625 18.546875 47.265625 
Q 14.109375 46.140625 10.015625 43.890625 
L 10.015625 52.203125 
Q 14.9375 54.109375 19.578125 55.046875 
Q 24.21875 56 28.609375 56 
Q 40.484375 56 46.34375 49.84375 
Q 52.203125 43.703125 52.203125 31.203125 
z
" id="DejaVuSans-61"/>
      <path d="M 54.890625 33.015625 
L 54.890625 0 
L 45.90625 0 
L 45.90625 32.71875 
Q 45.90625 40.484375 42.875 44.328125 
Q 39.84375 48.1875 33.796875 48.1875 
Q 26.515625 48.1875 22.3125 43.546875 
Q 18.109375 38.921875 18.109375 30.90625 
L 18.109375 0 
L 9.078125 0 
L 9.078125 54.6875 
L 18.109375 54.6875 
L 18.109375 46.1875 
Q 21.34375 51.125 25.703125 53.5625 
Q 30.078125 56 35.796875 56 
Q 45.21875 56 50.046875 50.171875 
Q 54.890625 44.34375 54.890625 33.015625 
z
" id="DejaVuSans-6e"/>
      <path d="M 45.40625 46.390625 
L 45.40625 75.984375 
L 54.390625 75.984375 
L 54.390625 0 
L 45.40625 0 
L 45.40625 8.203125 
Q 42.578125 3.328125 38.25 0.953125 
Q 33.9375 -1.421875 27.875 -1.421875 
Q 17.96875 -1.421875 11.734375 6.484375 
Q 5.515625 14.40625 5.515625 27.296875 
Q 5.515625 40.1875 11.734375 48.09375 
Q 17.96875 56 27.875 56 
Q 33.9375 56 38.25 53.625 
Q 42.578125 51.265625 45.40625 46.390625 
z
M 14.796875 27.296875 
Q 14.796875 17.390625 18.875 11.75 
Q 22.953125 6.109375 30.078125 6.109375 
Q 37.203125 6.109375 41.296875 11.75 
Q 45.40625 17.390625 45.40625 27.296875 
Q 45.40625 37.203125 41.296875 42.84375 
Q 37.203125 48.484375 30.078125 48.484375 
Q 22.953125 48.484375 18.875 42.84375 
Q 14.796875 37.203125 14.796875 27.296875 
z
" id="DejaVuSans-64"/>
      <path id="DejaVuSans-20"/>
      <path d="M 37.109375 75.984375 
L 37.109375 68.5 
L 28.515625 68.5 
Q 23.6875 68.5 21.796875 66.546875 
Q 19.921875 64.59375 19.921875 59.515625 
L 19.921875 54.6875 
L 34.71875 54.6875 
L 34.71875 47.703125 
L 19.921875 47.703125 
L 19.921875 0 
L 10.890625 0 
L 10.890625 47.703125 
L 2.296875 47.703125 
L 2.296875 54.6875 
L 10.890625 54.6875 
L 10.890625 58.5 
Q 10.890625 67.625 15.140625 71.796875 
Q 19.390625 75.984375 28.609375 75.984375 
z
" id="DejaVuSans-66"/>
      <path d="M 32.171875 -5.078125 
Q 28.375 -14.84375 24.75 -17.8125 
Q 21.140625 -20.796875 15.09375 -20.796875 
L 7.90625 -20.796875 
L 7.90625 -13.28125 
L 13.1875 -13.28125 
Q 16.890625 -13.28125 18.9375 -11.515625 
Q 21 -9.765625 23.484375 -3.21875 
L 25.09375 0.875 
L 2.984375 54.6875 
L 12.5 54.6875 
L 29.59375 11.921875 
L 46.6875 54.6875 
L 56.203125 54.6875 
z
" id="DejaVuSans-79"/>
      <path d="M 56.203125 29.59375 
L 56.203125 25.203125 
L 14.890625 25.203125 
Q 15.484375 15.921875 20.484375 11.0625 
Q 25.484375 6.203125 34.421875 6.203125 
Q 39.59375 6.203125 44.453125 7.46875 
Q 49.3125 8.734375 54.109375 11.28125 
L 54.109375 2.78125 
Q 49.265625 0.734375 44.1875 -0.34375 
Q 39.109375 -1.421875 33.890625 -1.421875 
Q 20.796875 -1.421875 13.15625 6.1875 
Q 5.515625 13.8125 5.515625 26.8125 
Q 5.515625 40.234375 12.765625 48.109375 
Q 20.015625 56 32.328125 56 
Q 43.359375 56 49.78125 48.890625 
Q 56.203125 41.796875 56.203125 29.59375 
z
M 47.21875 32.234375 
Q 47.125 39.59375 43.09375 43.984375 
Q 39.0625 48.390625 32.421875 48.390625 
Q 24.90625 48.390625 20.390625 44.140625 
Q 15.875 39.890625 15.1875 32.171875 
z
" id="DejaVuSans-65"/>
      <path d="M 41.109375 46.296875 
Q 39.59375 47.171875 37.8125 47.578125 
Q 36.03125 48 33.890625 48 
Q 26.265625 48 22.1875 43.046875 
Q 18.109375 38.09375 18.109375 28.8125 
L 18.109375 0 
L 9.078125 0 
L 9.078125 54.6875 
L 18.109375 54.6875 
L 18.109375 46.1875 
Q 20.953125 51.171875 25.484375 53.578125 
Q 30.03125 56 36.53125 56 
Q 37.453125 56 38.578125 55.875 
Q 39.703125 55.765625 41.0625 55.515625 
z
" id="DejaVuSans-72"/>
      <path d="M 45.40625 27.984375 
Q 45.40625 37.75 41.375 43.109375 
Q 37.359375 48.484375 30.078125 48.484375 
Q 22.859375 48.484375 18.828125 43.109375 
Q 14.796875 37.75 14.796875 27.984375 
Q 14.796875 18.265625 18.828125 12.890625 
Q 22.859375 7.515625 30.078125 7.515625 
Q 37.359375 7.515625 41.375 12.890625 
Q 45.40625 18.265625 45.40625 27.984375 
z
M 54.390625 6.78125 
Q 54.390625 -7.171875 48.1875 -13.984375 
Q 42 -20.796875 29.203125 -20.796875 
Q 24.46875 -20.796875 20.265625 -20.09375 
Q 16.0625 -19.390625 12.109375 -17.921875 
L 12.109375 -9.1875 
Q 16.0625 -11.328125 19.921875 -12.34375 
Q 23.78125 -13.375 27.78125 -13.375 
Q 36.625 -13.375 41.015625 -8.765625 
Q 45.40625 -4.15625 45.40625 5.171875 
L 45.40625 9.625 
Q 42.625 4.78125 38.28125 2.390625 
Q 33.9375 0 27.875 0 
Q 17.828125 0 11.671875 7.65625 
Q 5.515625 15.328125 5.515625 27.984375 
Q 5.515625 40.671875 11.671875 48.328125 
Q 17.828125 56 27.875 56 
Q 33.9375 56 38.28125 53.609375 
Q 42.625 51.21875 45.40625 46.390625 
L 45.40625 54.6875 
L 54.390625 54.6875 
z
" id="DejaVuSans-67"/>
     </defs>
     <g transform="translate(88.532422 280.264219)scale(0.15 -0.15)">
      <use xlink:href="#DejaVuSans-54"/>
      <use x="61.083984" xlink:href="#DejaVuSans-68"/>
      <use x="124.462891" xlink:href="#DejaVuSans-6f"/>
      <use x="185.644531" xlink:href="#DejaVuSans-75"/>
      <use x="249.023438" xlink:href="#DejaVuSans-73"/>
      <use x="301.123047" xlink:href="#DejaVuSans-61"/>
      <use x="362.402344" xlink:href="#DejaVuSans-6e"/>
      <use x="425.78125" xlink:href="#DejaVuSans-64"/>
      <use x="489.257812" xlink:href="#DejaVuSans-73"/>
      <use x="541.357422" xlink:href="#DejaVuSans-20"/>
      <use x="573.144531" xlink:href="#DejaVuSans-6f"/>
      <use x="634.326172" xlink:href="#DejaVuSans-66"/>
      <use x="669.53125" xlink:href="#DejaVuSans-20"/>
      <use x="701.318359" xlink:href="#DejaVuSans-79"/>
      <use x="760.498047" xlink:href="#DejaVuSans-65"/>
      <use x="822.021484" xlink:href="#DejaVuSans-61"/>
      <use x="883.300781" xlink:href="#DejaVuSans-72"/>
      <use x="924.414062" xlink:href="#DejaVuSans-73"/>
      <use x="976.513672" xlink:href="#DejaVuSans-20"/>
      <use x="1008.300781" xlink:href="#DejaVuSans-61"/>
      <use x="1069.580078" xlink:href="#DejaVuSans-67"/>
      <use x="1133.056641" xlink:href="#DejaVuSans-6f"/>
     </g>
    </g>
   </g>
   <g id="matplotlib.axis_2">
    <g id="ytick_1">
     <g id="line2d_6">
      <defs>
       <path d="M 0 0 
L 3.5 0 
" id="m02280c1143" style="stroke:#000000;stroke-width:0.8;"/>
      </defs>
      <g>
       <use style="stroke:#000000;stroke-width:0.8;" x="345.5" xlink:href="#m02280c1143" y="210.543067"/>
      </g>
     </g>
     <g id="text_7">
      <!-- 200 -->
      <g transform="translate(352.5 215.861973)scale(0.14 -0.14)">
       <use xlink:href="#DejaVuSans-32"/>
       <use x="63.623047" xlink:href="#DejaVuSans-30"/>
       <use x="127.246094" xlink:href="#DejaVuSans-30"/>
      </g>
     </g>
    </g>
    <g id="ytick_2">
     <g id="line2d_7">
      <g>
       <use style="stroke:#000000;stroke-width:0.8;" x="345.5" xlink:href="#m02280c1143" y="168.482355"/>
      </g>
     </g>
     <g id="text_8">
      <!-- 250 -->
      <defs>
       <path d="M 10.796875 72.90625 
L 49.515625 72.90625 
L 49.515625 64.59375 
L 19.828125 64.59375 
L 19.828125 46.734375 
Q 21.96875 47.46875 24.109375 47.828125 
Q 26.265625 48.1875 28.421875 48.1875 
Q 40.625 48.1875 47.75 41.5 
Q 54.890625 34.8125 54.890625 23.390625 
Q 54.890625 11.625 47.5625 5.09375 
Q 40.234375 -1.421875 26.90625 -1.421875 
Q 22.3125 -1.421875 17.546875 -0.640625 
Q 12.796875 0.140625 7.71875 1.703125 
L 7.71875 11.625 
Q 12.109375 9.234375 16.796875 8.0625 
Q 21.484375 6.890625 26.703125 6.890625 
Q 35.15625 6.890625 40.078125 11.328125 
Q 45.015625 15.765625 45.015625 23.390625 
Q 45.015625 31 40.078125 35.4375 
Q 35.15625 39.890625 26.703125 39.890625 
Q 22.75 39.890625 18.8125 39.015625 
Q 14.890625 38.140625 10.796875 36.28125 
z
" id="DejaVuSans-35"/>
      </defs>
      <g transform="translate(352.5 173.801261)scale(0.14 -0.14)">
       <use xlink:href="#DejaVuSans-32"/>
       <use x="63.623047" xlink:href="#DejaVuSans-35"/>
       <use x="127.246094" xlink:href="#DejaVuSans-30"/>
      </g>
     </g>
    </g>
    <g id="ytick_3">
     <g id="line2d_8">
      <g>
       <use style="stroke:#000000;stroke-width:0.8;" x="345.5" xlink:href="#m02280c1143" y="126.421643"/>
      </g>
     </g>
     <g id="text_9">
      <!-- 300 -->
      <defs>
       <path d="M 40.578125 39.3125 
Q 47.65625 37.796875 51.625 33 
Q 55.609375 28.21875 55.609375 21.1875 
Q 55.609375 10.40625 48.1875 4.484375 
Q 40.765625 -1.421875 27.09375 -1.421875 
Q 22.515625 -1.421875 17.65625 -0.515625 
Q 12.796875 0.390625 7.625 2.203125 
L 7.625 11.71875 
Q 11.71875 9.328125 16.59375 8.109375 
Q 21.484375 6.890625 26.8125 6.890625 
Q 36.078125 6.890625 40.9375 10.546875 
Q 45.796875 14.203125 45.796875 21.1875 
Q 45.796875 27.640625 41.28125 31.265625 
Q 36.765625 34.90625 28.71875 34.90625 
L 20.21875 34.90625 
L 20.21875 43.015625 
L 29.109375 43.015625 
Q 36.375 43.015625 40.234375 45.921875 
Q 44.09375 48.828125 44.09375 54.296875 
Q 44.09375 59.90625 40.109375 62.90625 
Q 36.140625 65.921875 28.71875 65.921875 
Q 24.65625 65.921875 20.015625 65.03125 
Q 15.375 64.15625 9.8125 62.3125 
L 9.8125 71.09375 
Q 15.4375 72.65625 20.34375 73.4375 
Q 25.25 74.21875 29.59375 74.21875 
Q 40.828125 74.21875 47.359375 69.109375 
Q 53.90625 64.015625 53.90625 55.328125 
Q 53.90625 49.265625 50.4375 45.09375 
Q 46.96875 40.921875 40.578125 39.3125 
z
" id="DejaVuSans-33"/>
      </defs>
      <g transform="translate(352.5 131.740549)scale(0.14 -0.14)">
       <use xlink:href="#DejaVuSans-33"/>
       <use x="63.623047" xlink:href="#DejaVuSans-30"/>
       <use x="127.246094" xlink:href="#DejaVuSans-30"/>
      </g>
     </g>
    </g>
    <g id="ytick_4">
     <g id="line2d_9">
      <g>
       <use style="stroke:#000000;stroke-width:0.8;" x="345.5" xlink:href="#m02280c1143" y="84.360931"/>
      </g>
     </g>
     <g id="text_10">
      <!-- 350 -->
      <g transform="translate(352.5 89.679838)scale(0.14 -0.14)">
       <use xlink:href="#DejaVuSans-33"/>
       <use x="63.623047" xlink:href="#DejaVuSans-35"/>
       <use x="127.246094" xlink:href="#DejaVuSans-30"/>
      </g>
     </g>
    </g>
    <g id="ytick_5">
     <g id="line2d_10">
      <g>
       <use style="stroke:#000000;stroke-width:0.8;" x="345.5" xlink:href="#m02280c1143" y="42.30022"/>
      </g>
     </g>
     <g id="text_11">
      <!-- 400 -->
      <g transform="translate(352.5 47.619126)scale(0.14 -0.14)">
       <use xlink:href="#DejaVuSans-34"/>
       <use x="63.623047" xlink:href="#DejaVuSans-30"/>
       <use x="127.246094" xlink:href="#DejaVuSans-30"/>
      </g>
     </g>
    </g>
    <g id="text_12">
     <!-- CO$_2$ concentration (ppmv) -->
     <defs>
      <path d="M 64.40625 67.28125 
L 64.40625 56.890625 
Q 59.421875 61.53125 53.78125 63.8125 
Q 48.140625 66.109375 41.796875 66.109375 
Q 29.296875 66.109375 22.65625 58.46875 
Q 16.015625 50.828125 16.015625 36.375 
Q 16.015625 21.96875 22.65625 14.328125 
Q 29.296875 6.6875 41.796875 6.6875 
Q 48.140625 6.6875 53.78125 8.984375 
Q 59.421875 11.28125 64.40625 15.921875 
L 64.40625 5.609375 
Q 59.234375 2.09375 53.4375 0.328125 
Q 47.65625 -1.421875 41.21875 -1.421875 
Q 24.65625 -1.421875 15.125 8.703125 
Q 5.609375 18.84375 5.609375 36.375 
Q 5.609375 53.953125 15.125 64.078125 
Q 24.65625 74.21875 41.21875 74.21875 
Q 47.75 74.21875 53.53125 72.484375 
Q 59.328125 70.75 64.40625 67.28125 
z
" id="DejaVuSans-43"/>
      <path d="M 39.40625 66.21875 
Q 28.65625 66.21875 22.328125 58.203125 
Q 16.015625 50.203125 16.015625 36.375 
Q 16.015625 22.609375 22.328125 14.59375 
Q 28.65625 6.59375 39.40625 6.59375 
Q 50.140625 6.59375 56.421875 14.59375 
Q 62.703125 22.609375 62.703125 36.375 
Q 62.703125 50.203125 56.421875 58.203125 
Q 50.140625 66.21875 39.40625 66.21875 
z
M 39.40625 74.21875 
Q 54.734375 74.21875 63.90625 63.9375 
Q 73.09375 53.65625 73.09375 36.375 
Q 73.09375 19.140625 63.90625 8.859375 
Q 54.734375 -1.421875 39.40625 -1.421875 
Q 24.03125 -1.421875 14.8125 8.828125 
Q 5.609375 19.09375 5.609375 36.375 
Q 5.609375 53.65625 14.8125 63.9375 
Q 24.03125 74.21875 39.40625 74.21875 
z
" id="DejaVuSans-4f"/>
      <path d="M 48.78125 52.59375 
L 48.78125 44.1875 
Q 44.96875 46.296875 41.140625 47.34375 
Q 37.3125 48.390625 33.40625 48.390625 
Q 24.65625 48.390625 19.8125 42.84375 
Q 14.984375 37.3125 14.984375 27.296875 
Q 14.984375 17.28125 19.8125 11.734375 
Q 24.65625 6.203125 33.40625 6.203125 
Q 37.3125 6.203125 41.140625 7.25 
Q 44.96875 8.296875 48.78125 10.40625 
L 48.78125 2.09375 
Q 45.015625 0.34375 40.984375 -0.53125 
Q 36.96875 -1.421875 32.421875 -1.421875 
Q 20.0625 -1.421875 12.78125 6.34375 
Q 5.515625 14.109375 5.515625 27.296875 
Q 5.515625 40.671875 12.859375 48.328125 
Q 20.21875 56 33.015625 56 
Q 37.15625 56 41.109375 55.140625 
Q 45.0625 54.296875 48.78125 52.59375 
z
" id="DejaVuSans-63"/>
      <path d="M 18.3125 70.21875 
L 18.3125 54.6875 
L 36.8125 54.6875 
L 36.8125 47.703125 
L 18.3125 47.703125 
L 18.3125 18.015625 
Q 18.3125 11.328125 20.140625 9.421875 
Q 21.96875 7.515625 27.59375 7.515625 
L 36.8125 7.515625 
L 36.8125 0 
L 27.59375 0 
Q 17.1875 0 13.234375 3.875 
Q 9.28125 7.765625 9.28125 18.015625 
L 9.28125 47.703125 
L 2.6875 47.703125 
L 2.6875 54.6875 
L 9.28125 54.6875 
L 9.28125 70.21875 
z
" id="DejaVuSans-74"/>
      <path d="M 9.421875 54.6875 
L 18.40625 54.6875 
L 18.40625 0 
L 9.421875 0 
z
M 9.421875 75.984375 
L 18.40625 75.984375 
L 18.40625 64.59375 
L 9.421875 64.59375 
z
" id="DejaVuSans-69"/>
      <path d="M 31 75.875 
Q 24.46875 64.65625 21.28125 53.65625 
Q 18.109375 42.671875 18.109375 31.390625 
Q 18.109375 20.125 21.3125 9.0625 
Q 24.515625 -2 31 -13.1875 
L 23.1875 -13.1875 
Q 15.875 -1.703125 12.234375 9.375 
Q 8.59375 20.453125 8.59375 31.390625 
Q 8.59375 42.28125 12.203125 53.3125 
Q 15.828125 64.359375 23.1875 75.875 
z
" id="DejaVuSans-28"/>
      <path d="M 18.109375 8.203125 
L 18.109375 -20.796875 
L 9.078125 -20.796875 
L 9.078125 54.6875 
L 18.109375 54.6875 
L 18.109375 46.390625 
Q 20.953125 51.265625 25.265625 53.625 
Q 29.59375 56 35.59375 56 
Q 45.5625 56 51.78125 48.09375 
Q 58.015625 40.1875 58.015625 27.296875 
Q 58.015625 14.40625 51.78125 6.484375 
Q 45.5625 -1.421875 35.59375 -1.421875 
Q 29.59375 -1.421875 25.265625 0.953125 
Q 20.953125 3.328125 18.109375 8.203125 
z
M 48.6875 27.296875 
Q 48.6875 37.203125 44.609375 42.84375 
Q 40.53125 48.484375 33.40625 48.484375 
Q 26.265625 48.484375 22.1875 42.84375 
Q 18.109375 37.203125 18.109375 27.296875 
Q 18.109375 17.390625 22.1875 11.75 
Q 26.265625 6.109375 33.40625 6.109375 
Q 40.53125 6.109375 44.609375 11.75 
Q 48.6875 17.390625 48.6875 27.296875 
z
" id="DejaVuSans-70"/>
      <path d="M 52 44.1875 
Q 55.375 50.25 60.0625 53.125 
Q 64.75 56 71.09375 56 
Q 79.640625 56 84.28125 50.015625 
Q 88.921875 44.046875 88.921875 33.015625 
L 88.921875 0 
L 79.890625 0 
L 79.890625 32.71875 
Q 79.890625 40.578125 77.09375 44.375 
Q 74.3125 48.1875 68.609375 48.1875 
Q 61.625 48.1875 57.5625 43.546875 
Q 53.515625 38.921875 53.515625 30.90625 
L 53.515625 0 
L 44.484375 0 
L 44.484375 32.71875 
Q 44.484375 40.625 41.703125 44.40625 
Q 38.921875 48.1875 33.109375 48.1875 
Q 26.21875 48.1875 22.15625 43.53125 
Q 18.109375 38.875 18.109375 30.90625 
L 18.109375 0 
L 9.078125 0 
L 9.078125 54.6875 
L 18.109375 54.6875 
L 18.109375 46.1875 
Q 21.1875 51.21875 25.484375 53.609375 
Q 29.78125 56 35.6875 56 
Q 41.65625 56 45.828125 52.96875 
Q 50 49.953125 52 44.1875 
z
" id="DejaVuSans-6d"/>
      <path d="M 2.984375 54.6875 
L 12.5 54.6875 
L 29.59375 8.796875 
L 46.6875 54.6875 
L 56.203125 54.6875 
L 35.6875 0 
L 23.484375 0 
z
" id="DejaVuSans-76"/>
      <path d="M 8.015625 75.875 
L 15.828125 75.875 
Q 23.140625 64.359375 26.78125 53.3125 
Q 30.421875 42.28125 30.421875 31.390625 
Q 30.421875 20.453125 26.78125 9.375 
Q 23.140625 -1.703125 15.828125 -13.1875 
L 8.015625 -13.1875 
Q 14.5 -2 17.703125 9.0625 
Q 20.90625 20.125 20.90625 31.390625 
Q 20.90625 42.671875 17.703125 53.65625 
Q 14.5 64.65625 8.015625 75.875 
z
" id="DejaVuSans-29"/>
     </defs>
     <g transform="translate(394.6225 234.222187)rotate(-90)scale(0.15 -0.15)">
      <use transform="translate(0 0.015625)" xlink:href="#DejaVuSans-43"/>
      <use transform="translate(69.824219 0.015625)" xlink:href="#DejaVuSans-4f"/>
      <use transform="translate(149.492188 -16.390625)scale(0.7)" xlink:href="#DejaVuSans-32"/>
      <use transform="translate(196.762695 0.015625)" xlink:href="#DejaVuSans-20"/>
      <use transform="translate(228.549805 0.015625)" xlink:href="#DejaVuSans-63"/>
      <use transform="translate(283.530273 0.015625)" xlink:href="#DejaVuSans-6f"/>
      <use transform="translate(344.711914 0.015625)" xlink:href="#DejaVuSans-6e"/>
      <use transform="translate(408.09082 0.015625)" xlink:href="#DejaVuSans-63"/>
      <use transform="translate(463.071289 0.015625)" xlink:href="#DejaVuSans-65"/>
      <use transform="translate(524.594727 0.015625)" xlink:href="#DejaVuSans-6e"/>
      <use transform="translate(587.973633 0.015625)" xlink:href="#DejaVuSans-74"/>
      <use transform="translate(627.182617 0.015625)" xlink:href="#DejaVuSans-72"/>
      <use transform="translate(668.295898 0.015625)" xlink:href="#DejaVuSans-61"/>
      <use transform="translate(729.575195 0.015625)" xlink:href="#DejaVuSans-74"/>
      <use transform="translate(768.78418 0.015625)" xlink:href="#DejaVuSans-69"/>
      <use transform="translate(796.567383 0.015625)" xlink:href="#DejaVuSans-6f"/>
      <use transform="translate(857.749023 0.015625)" xlink:href="#DejaVuSans-6e"/>
      <use transform="translate(921.12793 0.015625)" xlink:href="#DejaVuSans-20"/>
      <use transform="translate(952.915039 0.015625)" xlink:href="#DejaVuSans-28"/>
      <use transform="translate(991.928711 0.015625)" xlink:href="#DejaVuSans-70"/>
      <use transform="translate(1055.405273 0.015625)" xlink:href="#DejaVuSans-70"/>
      <use transform="translate(1118.881836 0.015625)" xlink:href="#DejaVuSans-6d"/>
      <use transform="translate(1216.293945 0.015625)" xlink:href="#DejaVuSans-76"/>
      <use transform="translate(1275.473633 0.015625)" xlink:href="#DejaVuSans-29"/>
     </g>
    </g>
   </g>
   <g id="line2d_11">
    <path clip-path="url(#pa983050e79)" d="M 329.920519 112.978339 
L 329.920139 112.19671 
L 329.919758 111.578418 
L 329.919377 110.897736 
L 329.918996 110.444882 
L 329.918616 109.919824 
L 329.918235 109.567215 
L 329.917854 108.445596 
L 329.917474 107.76281 
L 329.917093 107.032356 
L 329.916712 105.708846 
L 329.916331 104.816458 
L 329.915951 104.282287 
L 329.91557 103.324003 
L 329.915189 101.456508 
L 329.914809 100.97982 
L 329.914428 100.215717 
L 329.914047 99.375204 
L 329.913666 97.90378 
L 329.913286 96.555033 
L 329.912905 95.422198 
L 329.912524 93.87927 
L 329.912144 92.828454 
L 329.911763 91.8211 
L 329.911382 90.433797 
L 329.911001 89.053505 
L 329.910621 87.807106 
L 329.91024 86.756289 
L 329.909859 85.258227 
L 329.909479 83.112429 
L 329.909098 81.9144 
L 329.908717 80.839749 
L 329.908336 79.657142 
L 329.907956 78.999593 
L 329.907575 78.438783 
L 329.907194 76.886042 
L 329.906814 75.210624 
L 329.906433 73.727983 
L 329.906052 72.783019 
L 329.905671 70.371539 
L 329.905291 68.956196 
L 329.90491 67.978284 
L 329.904529 66.679309 
L 329.904149 64.931687 
L 329.903768 62.794301 
L 329.903387 61.342506 
L 329.903006 59.458887 
L 329.902626 57.603309 
L 329.902245 56.101741 
L 329.901864 54.540588 
L 329.901484 52.933869 
L 329.901103 50.796483 
L 329.900722 49.325059 
L 329.900341 47.456863 
L 329.899961 45.188388 
L 329.89958 43.466703 
L 329.899199 41.555745 
L 329.898819 38.701926 
L 329.898438 36.760824 
" style="fill:none;stroke:#000000;stroke-linecap:square;stroke-width:1.5;"/>
   </g>
   <g id="line2d_12">
    <path clip-path="url(#pa983050e79)" d="M 330.281818 144.087142 
L 330.274204 144.087142 
L 330.215193 139.881071 
L 330.158086 141.563499 
L 330.152375 141.563499 
L 330.043871 147.451999 
L 330.087653 140.722285 
L 330.030546 146.610785 
L 330.015317 146.610785 
L 329.914428 102.02643 
L 329.914428 102.02643 
" style="fill:none;stroke:#2ca02c;stroke-linecap:square;stroke-width:2;"/>
   </g>
   <g id="line2d_13">
    <path clip-path="url(#pa983050e79)" d="M 322.726142 218.534602 
L 320.78259 219.796423 
L 320.277761 220.890002 
L 319.451609 214.580895 
L 319.347293 215.506231 
L 319.063279 213.823802 
L 318.792591 215.590352 
L 318.589289 218.029874 
L 318.347535 216.010959 
L 318.00451 210.879553 
L 317.85527 211.30016 
L 317.706791 210.206581 
L 317.299045 210.458945 
L 317.230516 209.197124 
L 317.139525 209.785974 
L 316.841044 206.084631 
L 316.19497 203.140382 
L 316.074283 199.607282 
L 315.953597 201.037346 
L 315.882022 199.943767 
L 315.629988 199.102553 
L 315.47618 202.215046 
L 315.400036 201.626196 
L 315.198257 201.87856 
L 314.875411 213.571438 
L 314.532767 212.057252 
L 314.376674 209.365367 
L 314.318424 211.468402 
L 313.973877 209.197124 
L 313.884028 208.692396 
L 313.803697 208.94476 
L 313.457246 210.627188 
L 313.320189 209.113003 
L 312.90597 196.915396 
L 312.787949 198.261339 
L 312.707237 197.336003 
L 312.472336 204.991053 
L 311.9637 211.30016 
L 311.68159 208.776517 
L 311.463821 204.738689 
L 311.2293 204.738689 
L 310.534875 198.513703 
L 310.367741 195.401211 
L 309.891466 196.326546 
L 309.506182 200.70086 
L 309.270139 201.457953 
L 308.964424 203.813353 
L 308.04157 195.232968 
L 307.503239 193.382296 
L 307.281282 197.924853 
L 307.098158 198.008975 
L 306.916937 200.027889 
L 306.609319 206.673481 
L 306.033678 212.730224 
L 305.860833 207.514696 
L 305.860833 207.514696 
" style="fill:none;stroke:#ff7f0e;stroke-linecap:square;"/>
   </g>
   <g id="line2d_14">
    <path clip-path="url(#pa983050e79)" d="M 328.899822 139.292221 
L 328.353876 153.256377 
L 327.359828 158.219541 
L 326.926574 164.696891 
L 326.623144 160.406698 
L 326.053213 158.72427 
L 325.742549 156.95772 
L 325.575415 172.856669 
L 325.400667 178.324562 
L 324.839112 180.091111 
L 324.590124 189.344468 
L 322.300883 225.51668 
L 321.233357 219.628181 
L 320.027631 217.609266 
L 318.859216 220.217031 
L 318.494871 217.525145 
L 316.595483 206.084631 
L 315.658161 202.888017 
L 313.362829 202.888017 
L 311.902405 219.544059 
L 311.324479 220.301152 
L 311.006201 202.046803 
L 310.635765 197.336003 
L 309.981315 218.618723 
L 308.189669 192.288718 
L 307.973042 201.794439 
L 305.99256 214.496774 
L 305.200673 217.777509 
L 304.819957 214.833259 
L 302.874502 187.577918 
L 302.045304 186.063733 
L 300.551758 196.158303 
L 300.158479 192.288718 
L 299.23296 184.549547 
L 298.54653 175.969162 
L 298.197795 179.922869 
L 297.555528 198.597825 
L 297.113517 196.242425 
L 296.452596 203.813353 
L 295.184052 186.736704 
L 294.002312 183.624211 
L 291.9099 188.83974 
L 291.533753 184.633668 
L 291.186541 179.502262 
L 290.533234 186.904947 
L 290.061527 179.502262 
L 289.706701 184.801911 
L 288.966971 178.408683 
L 288.74844 172.183698 
L 288.119879 167.472898 
L 287.336367 162.84622 
L 286.803365 154.770563 
L 286.485849 158.892513 
L 286.293588 147.872606 
L 286.096758 148.966185 
L 285.570228 157.967177 
L 285.094715 153.676984 
L 284.752452 148.545578 
L 284.36298 150.059763 
L 284.092672 155.695899 
L 283.850918 145.264842 
L 283.345709 149.89152 
L 283.069309 146.274299 
L 282.41486 154.770563 
L 282.303691 143.498292 
L 282.234781 149.134428 
L 282.169298 145.685449 
L 281.821705 148.545578 
L 281.6165 157.967177 
L 281.522844 157.883056 
L 281.227789 146.947271 
L 281.061417 148.293213 
L 281.050757 137.273307 
L 280.960527 137.525671 
L 280.862683 141.058771 
L 280.682224 157.210084 
L 280.563441 161.836763 
L 280.531461 160.911427 
L 279.924981 172.688426 
L 279.773076 186.231975 
L 279.48221 190.774532 
L 279.262537 190.438047 
L 279.126241 201.626196 
L 278.861263 203.05626 
L 278.798826 207.430574 
L 278.542604 206.757603 
L 278.448567 212.225495 
L 278.297804 212.225495 
L 278.191204 209.113003 
L 278.142472 209.954217 
L 278.051101 208.524153 
L 277.930795 214.076167 
L 277.897292 209.617731 
L 277.524952 216.095081 
L 277.392082 215.422109 
L 277.314797 218.786966 
L 276.899817 217.020416 
L 276.769613 213.487317 
L 276.281536 214.244409 
L 276.258312 213.571438 
L 275.840287 218.618723 
L 274.582022 213.150831 
L 273.261702 208.019424 
L 272.846722 219.880545 
L 272.274888 210.038338 
L 270.762686 222.740673 
L 269.176245 206.925846 
L 269.031193 213.487317 
L 268.161258 218.871088 
L 267.601607 224.170737 
L 267.319497 213.403195 
L 266.274814 212.393738 
L 265.395742 212.47786 
L 264.687992 213.907924 
L 264.275678 218.702845 
L 264.008796 219.459938 
L 263.910191 218.871088 
L 263.182263 204.065717 
L 262.484412 199.439039 
L 262.088468 195.653575 
L 261.731357 212.141374 
L 260.616242 207.682938 
L 259.611534 201.542075 
L 258.845535 184.213061 
L 258.183471 184.12894 
L 257.939813 193.466418 
L 257.45402 195.401211 
L 256.48015 188.25089 
L 256.262762 193.718782 
L 255.677983 188.335011 
L 255.428234 175.88504 
L 254.172254 167.725262 
L 253.812097 177.65159 
L 253.338107 170.501269 
L 252.862213 173.193155 
L 252.686703 183.708333 
L 252.518046 183.455968 
L 252.320074 186.48434 
L 252.075274 188.419132 
L 251.514861 178.492804 
L 251.441764 179.249897 
L 251.188207 185.30664 
L 251.070185 176.47389 
L 250.429442 170.837755 
L 250.356344 166.799927 
L 250.043396 177.315105 
L 249.915095 162.25737 
L 249.664204 174.034369 
L 249.266356 167.472898 
L 248.939702 175.716797 
L 248.728786 176.642133 
L 248.276116 167.052291 
L 248.148576 167.557019 
L 247.924715 172.436062 
L 247.555422 176.47389 
L 246.790564 198.681946 
L 246.503124 196.999518 
L 246.14449 204.570446 
L 245.885223 203.140382 
L 245.39372 205.832267 
L 244.541298 207.76706 
L 243.916925 180.679961 
L 243.611591 181.521176 
L 243.491285 182.698876 
L 243.20613 189.933318 
L 242.579091 183.287726 
L 242.198757 182.025904 
L 241.953576 175.548555 
L 240.525513 172.520183 
L 240.273099 166.715805 
L 240.031725 175.716797 
L 239.795682 170.669512 
L 239.36395 177.65159 
L 239.101257 172.183698 
L 238.928031 172.015455 
L 238.751379 170.669512 
L 238.562545 166.126955 
L 238.032208 157.378327 
L 237.659107 143.077685 
L 236.897296 179.670504 
L 236.700466 184.970154 
L 236.480793 194.223511 
L 235.627991 198.177218 
L 234.694477 210.374824 
L 234.362493 198.850189 
L 234.035459 214.412652 
L 233.702333 213.319074 
L 233.360831 214.412652 
L 232.651939 211.384281 
L 232.042033 207.17821 
L 231.447736 207.262331 
L 230.803566 202.46741 
L 230.589223 205.748146 
L 230.141502 203.05626 
L 229.822463 198.261339 
L 229.221313 186.904947 
L 228.785775 210.627188 
L 228.529553 200.70086 
L 228.104675 220.048788 
L 227.823326 221.310609 
L 227.45289 215.422109 
L 227.046286 211.552524 
L 226.652627 223.413645 
L 226.250972 218.618723 
L 225.870637 215.674474 
L 225.485734 215.506231 
L 225.093978 211.88901 
L 224.7224 216.263324 
L 224.32836 208.692396 
L 223.951832 206.757603 
L 223.582538 201.28971 
L 223.221239 197.672489 
L 222.654354 190.606289 
L 221.882644 184.213061 
L 220.990628 188.335011 
L 220.644939 184.12894 
L 220.45382 184.970154 
L 220.189222 184.465426 
L 219.458249 181.18469 
L 219.238576 193.382296 
L 218.996061 196.158303 
L 218.600878 204.149839 
L 218.352652 205.495781 
L 218.077775 204.906931 
L 217.777391 199.859646 
L 217.258857 199.52316 
L 216.500852 196.158303 
L 215.853636 184.465426 
L 215.529647 180.175233 
L 215.175582 177.735712 
L 214.841314 180.259354 
L 214.481157 176.726255 
L 214.098158 176.305647 
L 213.843459 168.314112 
L 213.5564 169.660055 
L 213.216802 172.856669 
L 212.855884 188.83974 
L 212.38037 187.157311 
L 212.134809 188.503254 
L 211.838232 182.614754 
L 211.516527 178.745169 
L 211.191016 177.735712 
L 210.883398 175.29619 
L 210.60243 167.136412 
L 210.324507 162.84622 
L 210.04925 162.509734 
L 209.780846 171.174241 
L 209.541757 149.470913 
L 209.276398 167.136412 
L 208.957739 172.520183 
L 208.643649 182.446511 
L 208.29301 163.603312 
L 207.958742 169.155326 
L 207.041599 159.733727 
L 206.752636 159.817848 
L 206.465577 159.649606 
L 206.202502 154.854684 
L 205.917347 156.705356 
L 205.688537 154.938806 
L 205.440691 151.573949 
L 205.205409 150.059763 
L 204.965178 147.367878 
L 204.487761 155.864141 
L 204.208696 150.228006 
L 204.006156 149.470913 
L 203.740416 149.050306 
L 203.176577 127.599343 
L 203.001067 144.844235 
L 202.806902 138.366885 
L 202.034812 175.29619 
L 201.727574 177.230983 
L 201.474018 181.77354 
L 200.747994 168.398234 
L 200.307126 209.954217 
L 199.794683 206.168753 
L 199.231224 206.505238 
L 198.204054 193.466418 
L 197.321556 192.793446 
L 196.792362 196.915396 
L 196.321417 202.635653 
L 195.807451 202.803896 
L 194.655026 216.431566 
L 194.047404 222.235945 
L 193.356786 222.488309 
L 192.50208 209.53361 
L 191.577704 205.243417 
L 190.492665 208.94476 
L 189.875525 210.627188 
L 189.270188 198.177218 
L 188.644292 189.849197 
L 188.051899 185.643125 
L 186.558733 187.830282 
L 185.977 176.894497 
L 185.367856 177.65159 
L 184.821149 171.174241 
L 184.235608 172.015455 
L 183.197017 156.200627 
L 182.913003 160.743184 
L 182.182791 164.108041 
L 181.465524 168.398234 
L 180.723129 154.770563 
L 180.077816 147.788485 
L 179.497225 145.685449 
L 178.918538 144.928356 
L 178.433126 135.759121 
L 177.215598 143.582414 
L 176.583611 142.236471 
L 176.26381 140.217557 
L 175.746418 146.442542 
L 174.804528 138.61925 
L 174.411249 137.44155 
L 173.925837 145.264842 
L 172.896764 147.788485 
L 171.863502 146.863149 
L 171.338876 143.330049 
L 170.814251 146.358421 
L 170.577826 146.190178 
L 170.048632 154.518199 
L 169.474133 148.293213 
L 168.802551 148.966185 
L 166.82778 185.559004 
L 164.722044 211.384281 
L 163.330529 209.281245 
L 163.322534 203.981596 
L 162.795244 205.579903 
L 162.795244 205.579903 
" style="fill:none;stroke:#1f77b4;stroke-linecap:square;"/>
   </g>
   <g id="line2d_15">
    <path clip-path="url(#pa983050e79)" d="M 180.723129 154.770563 
L 180.476425 160.49082 
L 180.082385 148.629699 
L 179.708903 159.481363 
L 178.366501 146.358421 
L 177.74365 145.685449 
L 177.445931 140.554042 
L 176.876381 140.638164 
L 176.598078 146.863149 
L 176.046041 146.190178 
L 175.762027 142.825321 
L 175.213416 143.582414 
L 174.937398 138.535128 
L 174.36366 139.460464 
L 174.06556 148.124971 
L 173.752231 141.058771 
L 173.422912 140.301678 
L 172.702979 147.536121 
L 172.327594 155.948263 
L 171.654109 146.274299 
L 171.472888 150.228006 
L 171.092934 148.797942 
L 170.899912 150.143885 
L 170.69166 147.788485 
L 170.305234 148.545578 
L 170.096602 150.648613 
L 169.890255 148.461456 
L 169.233901 154.686442 
L 169.01499 151.153342 
L 168.590492 153.592863 
L 168.374246 153.088135 
L 168.180843 150.985099 
L 168.027795 151.65807 
L 167.903301 155.527656 
L 167.748731 164.02392 
L 167.249994 169.996541 
L 167.143013 174.791462 
L 166.594783 193.971146 
L 166.26356 187.66204 
L 165.666218 204.149839 
L 165.226872 202.299167 
L 164.817603 204.23396 
L 164.387395 210.290703 
L 163.936247 209.113003 
L 163.493475 209.449488 
L 163.035094 208.860638 
L 162.574809 211.30016 
L 161.944725 209.617731 
L 161.491293 207.598817 
L 161.05309 203.729232 
L 160.638872 209.113003 
L 160.190008 209.53361 
L 159.750282 206.421117 
L 158.889866 211.88901 
L 158.428819 216.179202 
L 157.995565 216.852174 
L 157.537945 206.925846 
L 157.264211 207.76706 
L 157.070427 203.560989 
L 155.537667 218.366359 
L 155.011899 215.253867 
L 154.493365 210.627188 
L 154.152625 206.168753 
L 153.982826 202.130924 
L 153.479139 203.729232 
L 152.942331 206.841724 
L 152.40971 207.682938 
L 151.626198 205.075174 
L 151.440789 197.504246 
L 151.189517 194.812361 
L 151.0102 185.979611 
L 150.760451 183.035361 
L 150.58951 173.782005 
L 150.316537 173.613762 
L 150.190139 172.183698 
L 149.806759 175.88504 
L 149.403201 182.698876 
L 149.001165 182.95124 
L 148.261055 177.65159 
L 148.048996 179.838747 
L 147.506477 194.728239 
L 147.139467 190.522168 
L 146.786544 190.858654 
L 146.11344 184.12894 
L 145.791354 184.12894 
L 145.480691 184.297183 
L 145.171931 182.782997 
L 144.879922 182.867118 
L 144.585629 184.213061 
L 144.03283 175.212069 
L 143.872549 176.137405 
L 143.75567 166.126955 
L 143.573307 169.071205 
L 143.47927 174.70734 
L 143.204013 174.11849 
L 142.919999 171.258362 
L 142.331033 177.146862 
L 141.732168 178.324562 
L 141.437494 178.156319 
L 140.857664 179.922869 
L 140.569082 179.838747 
L 140.288114 182.95124 
L 139.99839 184.801911 
L 139.714757 184.633668 
L 139.428078 186.820825 
L 139.13607 184.633668 
L 138.855863 184.297183 
L 138.5669 183.624211 
L 138.281364 183.455968 
L 138.011817 181.857661 
L 137.747601 182.025904 
L 137.466252 180.679961 
L 137.172721 180.259354 
L 136.897083 178.408683 
L 136.62944 179.41814 
L 136.339335 176.642133 
L 136.045803 182.446511 
L 135.756079 179.922869 
L 135.467877 180.932326 
L 135.182341 175.212069 
L 134.895282 178.408683 
L 134.618121 177.567469 
L 134.072936 174.370855 
L 133.812527 170.837755 
L 133.316074 172.267819 
L 133.067848 172.436062 
L 132.825332 170.417148 
L 132.346012 173.950248 
L 131.612373 175.29619 
L 131.361101 179.586383 
L 131.108306 180.427597 
L 130.83914 182.194147 
L 129.985957 189.765075 
L 129.416026 192.709325 
L 129.114119 193.466418 
L 128.806501 193.129932 
L 128.138727 210.543067 
L 127.750778 215.758595 
L 127.512069 218.534602 
L 127.338082 210.71131 
L 126.909016 211.047795 
L 126.483376 206.336996 
L 126.057356 205.159296 
L 125.623721 199.691403 
L 125.18666 201.121467 
L 124.733989 206.336996 
L 124.279034 207.514696 
L 123.825602 203.729232 
L 123.385115 201.87856 
L 122.938155 202.46741 
L 122.508708 202.383289 
L 122.070124 206.673481 
L 121.667708 208.440031 
L 121.302602 199.102553 
L 120.936735 197.75661 
L 120.595233 193.802904 
L 120.102587 191.783989 
L 119.977713 188.419132 
L 119.673902 193.466418 
L 119.403213 190.690411 
L 119.150037 190.101561 
L 118.910948 188.082647 
L 118.307514 169.239448 
L 118.191777 173.52964 
L 118.107639 168.061748 
L 117.718929 178.492804 
L 117.527809 181.521176 
L 117.415118 185.559004 
L 117.335167 185.138397 
L 117.131104 185.054275 
L 116.928563 186.736704 
L 116.734018 183.960697 
L 116.54861 183.708333 
L 116.369293 181.437054 
L 116.225002 181.857661 
L 115.858373 174.959705 
L 115.699234 172.099576 
L 115.53743 172.015455 
L 115.384382 170.501269 
L 115.082094 166.463441 
L 114.934377 166.295198 
L 114.790466 167.304655 
L 114.495792 164.865134 
L 114.350359 165.20162 
L 114.203403 164.696891 
L 114.055686 165.790469 
L 113.913298 165.20162 
L 113.762535 166.126955 
L 113.614056 165.958712 
L 113.465957 168.314112 
L 113.317479 167.388777 
L 113.170903 168.482355 
L 112.863285 166.968169 
L 112.707573 166.968169 
L 112.552621 168.818841 
L 112.395767 167.136412 
L 112.240435 168.229991 
L 112.082438 171.594848 
L 111.759972 169.155326 
L 111.598168 169.575934 
L 111.430653 166.968169 
L 111.087629 166.715805 
L 110.911738 169.407691 
L 110.734706 166.379319 
L 110.547394 166.042834 
L 110.356655 167.388777 
L 110.159064 167.388777 
L 109.958427 167.557019 
L 109.754364 169.239448 
L 109.544209 166.042834 
L 109.324155 167.220534 
L 108.844454 185.054275 
L 107.953961 204.906931 
L 107.80967 201.626196 
L 106.48478 188.671497 
L 105.597333 168.314112 
L 105.352152 170.080662 
L 104.434248 188.923861 
L 103.828529 178.492804 
L 103.535759 178.576926 
L 103.326366 182.867118 
L 102.821537 196.747153 
L 102.468234 196.831275 
L 102.269119 194.559996 
L 101.710229 185.811368 
L 101.158954 183.203604 
L 100.627475 178.661047 
L 100.096377 177.65159 
L 98.095337 160.743184 
L 97.635814 162.005005 
L 97.185428 160.406698 
L 96.275518 163.43507 
L 95.81333 166.379319 
L 94.815475 166.547562 
L 94.278285 170.248905 
L 93.210379 174.370855 
L 92.656819 178.072197 
L 92.094883 179.165776 
L 91.759853 181.689419 
L 91.135099 198.008975 
L 90.835096 206.336996 
L 90.284201 211.636645 
L 89.960973 210.627188 
L 89.311473 210.963674 
L 88.985961 214.244409 
L 88.32504 217.188659 
L 87.983538 215.674474 
L 87.424648 216.431566 
L 86.979211 215.337988 
L 86.324 220.890002 
L 85.976787 219.712302 
L 85.350511 218.786966 
L 85.046319 218.618723 
L 84.491236 215.506231 
L 84.183618 215.085624 
L 83.706582 220.132909 
L 83.377263 218.534602 
L 82.860252 217.188659 
L 82.612025 214.917381 
L 82.11976 220.805881 
L 81.866585 217.272781 
L 81.392213 222.488309 
L 81.146271 222.908916 
L 80.756038 217.861631 
L 80.478497 216.263324 
L 80.065801 211.88901 
L 79.838895 211.636645 
L 79.232796 219.628181 
L 78.833045 225.348437 
L 78.278343 221.815338 
L 78.023644 219.123452 
L 77.635695 220.805881 
L 77.431251 219.796423 
L 77.055866 219.712302 
L 76.502686 228.881537 
L 76.301288 228.629173 
L 75.988721 233.508215 
L 75.77019 234.433551 
L 75.250514 228.629173 
L 74.777665 219.544059 
L 74.355071 215.085624 
L 74.111413 216.852174 
L 73.666357 211.636645 
L 72.716853 193.718782 
L 72.495657 195.905939 
L 72.360884 198.766068 
L 72.153775 197.420125 
L 72.034992 195.905939 
L 71.68816 185.30664 
L 71.450975 184.633668 
L 71.322293 185.054275 
L 71.139549 191.195139 
L 71.00668 189.512711 
L 70.68726 196.915396 
L 70.454642 195.990061 
L 70.106288 191.531625 
L 69.662374 195.821818 
L 69.460595 195.821818 
L 69.355137 194.223511 
L 69.153357 194.139389 
L 69.051326 193.971146 
L 68.76084 190.017439 
L 68.591422 190.101561 
L 68.476826 187.577918 
L 68.193574 186.316097 
L 67.743569 180.427597 
L 67.656385 181.18469 
L 67.495342 180.427597 
L 67.381508 176.978619 
L 67.118434 181.268811 
L 66.936833 176.894497 
L 66.85003 181.941783 
L 66.593808 179.754626 
L 66.447233 180.679961 
L 66.340252 180.343476 
L 66.177686 182.867118 
L 66.092025 181.268811 
L 65.844941 181.857661 
L 65.681614 180.764083 
L 65.593288 181.605297 
L 65.34925 179.502262 
L 65.180974 179.670504 
L 65.091506 178.913412 
L 64.922468 181.437054 
L 64.836807 181.268811 
L 64.673099 180.764083 
L 64.579443 182.867118 
L 64.138956 184.465426 
L 64.037685 186.989068 
L 63.849612 188.335011 
L 63.765093 187.241432 
L 63.562933 187.325554 
L 63.457856 188.671497 
L 63.275113 186.400218 
L 63.139959 187.325554 
L 62.601627 185.89549 
L 62.285634 183.287726 
L 62.13487 182.95124 
L 61.820019 184.297183 
L 61.529914 182.025904 
L 61.363541 186.568461 
L 61.085238 186.48434 
L 60.983206 186.904947 
L 59.737886 193.971146 
L 59.525828 193.550539 
L 59.075061 194.812361 
L 58.537491 194.980603 
L 58.152969 191.783989 
L 57.98355 192.288718 
L 57.643952 195.653575 
L 57.426944 191.952232 
L 56.926304 206.336996 
L 56.273758 223.75013 
L 55.887332 220.805881 
L 55.307121 205.243417 
L 55.032626 201.037346 
L 54.616123 199.270796 
L 54.490106 199.439039 
L 54.116625 201.87856 
L 53.882865 205.243417 
L 53.548597 204.991053 
L 53.402022 203.729232 
L 53.0708 206.757603 
L 52.865213 205.916389 
L 52.546935 206.252874 
L 52.412543 206.00051 
L 51.887917 207.17821 
L 51.640452 207.094088 
L 51.49578 206.421117 
L 51.186639 207.346453 
L 51.031688 205.579903 
L 50.760238 207.262331 
L 50.39399 206.084631 
L 50.248937 204.318081 
L 49.923426 209.449488 
L 49.687382 207.094088 
L 49.54233 202.383289 
L 49.323799 203.729232 
L 49.235473 201.037346 
L 48.998288 201.626196 
L 48.523155 212.393738 
L 48.089139 228.292687 
L 47.805887 228.545051 
L 47.697003 230.22748 
L 47.404613 229.133901 
L 47.220728 225.432559 
L 46.963745 225.937287 
L 46.82821 227.030866 
L 46.350793 225.684923 
L 45.972743 227.199109 
L 45.665506 224.759587 
L 45.487711 226.69438 
L 45.240627 226.69438 
L 45.110423 227.030866 
L 44.801282 226.189652 
L 44.313585 223.329523 
L 44.206224 224.002495 
L 43.892134 222.151823 
L 43.690735 218.871088 
L 43.395681 220.637638 
L 43.253674 213.487317 
L 42.870674 217.693388 
L 42.714581 214.076167 
L 41.771549 201.542075 
L 41.356189 194.391753 
L 41.243116 197.672489 
L 41.160882 195.737696 
L 41.00555 195.485332 
L 40.389933 204.738689 
L 40.027111 205.41166 
L 39.794494 200.448496 
L 39.487257 197.083639 
L 39.316697 197.924853 
L 39.176974 188.923861 
L 39.082557 192.541082 
L 38.962631 190.269804 
L 38.740294 191.531625 
L 38.25412 197.336003 
L 37.878735 199.186675 
L 37.2852 191.699868 
L 37.134817 192.541082 
L 36.958165 186.904947 
L 36.85423 188.671497 
L 36.4975 178.408683 
L 36.394706 180.59584 
L 36.293436 178.82929 
L 36.122876 185.727247 
L 35.982772 184.549547 
L 35.614621 185.30664 
L 34.850144 176.47389 
L 34.474759 177.903954 
L 34.24671 173.613762 
L 33.896452 171.594848 
L 33.765486 171.763091 
L 33.423604 172.015455 
L 33.208119 173.613762 
L 32.863952 169.744176 
L 32.732986 174.539098 
L 32.381586 169.575934 
L 32.182091 171.678969 
L 31.72371 166.715805 
L 31.387158 171.090119 
L 31.179668 167.893505 
L 30.762023 163.939798 
L 30.458212 159.817848 
L 30.272042 162.677977 
L 29.907698 170.248905 
L 29.582567 185.727247 
L 29.394494 188.419132 
L 29.100581 195.232968 
L 28.954006 192.625204 
L 28.591184 197.588368 
L 28.366562 206.252874 
L 28.038386 207.17821 
L 27.917699 202.972139 
L 27.17835 214.580895 
L 26.696745 219.544059 
L 26.456133 220.301152 
L 25.918182 218.113995 
L 25.918182 218.113995 
" style="fill:none;stroke:#17becf;stroke-linecap:square;"/>
   </g>
   <g id="line2d_16">
    <path clip-path="url(#pa983050e79)" d="M 0 0 
" style="fill:none;stroke:#17becf;stroke-linecap:square;"/>
   </g>
   <g id="patch_4">
    <path d="M 10.7 244.317187 
L 10.7 26.877187 
" style="fill:none;stroke:#000000;stroke-linecap:square;stroke-linejoin:miter;stroke-width:0.8;"/>
   </g>
   <g id="patch_5">
    <path d="M 345.5 244.317187 
L 345.5 26.877187 
" style="fill:none;stroke:#000000;stroke-linecap:square;stroke-linejoin:miter;stroke-width:0.8;"/>
   </g>
   <g id="patch_6">
    <path d="M 10.7 244.317188 
L 345.5 244.317188 
" style="fill:none;stroke:#000000;stroke-linecap:square;stroke-linejoin:miter;stroke-width:0.8;"/>
   </g>
   <g id="patch_7">
    <path d="M 10.7 26.877187 
L 345.5 26.877187 
" style="fill:none;stroke:#000000;stroke-linecap:square;stroke-linejoin:miter;stroke-width:0.8;"/>
   </g>
   <g id="patch_8">
    <path d="M 309.313543 88.564175 
Q 319.552144 118.743063 329.790744 148.921952 
" style="fill:none;opacity:0.9;stroke:#000000;stroke-linecap:round;stroke-width:0.8;"/>
   </g>
   <g id="patch_9">
    <path d="M 310.497011 38.015812 
Q 319.55408 33.943502 328.611148 29.871192 
" style="fill:none;opacity:0.9;stroke:#000000;stroke-linecap:round;stroke-width:0.8;"/>
   </g>
   <g id="text_13">
    <!-- Ice age  -->
    <defs>
     <path d="M 9.8125 72.90625 
L 19.671875 72.90625 
L 19.671875 0 
L 9.8125 0 
z
" id="DejaVuSans-49"/>
    </defs>
    <g transform="translate(37.1675 150.427012)scale(0.12 -0.12)">
     <use xlink:href="#DejaVuSans-49"/>
     <use x="29.492188" xlink:href="#DejaVuSans-63"/>
     <use x="84.472656" xlink:href="#DejaVuSans-65"/>
     <use x="145.996094" xlink:href="#DejaVuSans-20"/>
     <use x="177.783203" xlink:href="#DejaVuSans-61"/>
     <use x="239.0625" xlink:href="#DejaVuSans-67"/>
     <use x="302.539062" xlink:href="#DejaVuSans-65"/>
     <use x="364.0625" xlink:href="#DejaVuSans-20"/>
    </g>
    <!--  cycles -->
    <defs>
     <path d="M 9.421875 75.984375 
L 18.40625 75.984375 
L 18.40625 0 
L 9.421875 0 
z
" id="DejaVuSans-6c"/>
    </defs>
    <g transform="translate(40.379375 163.864387)scale(0.12 -0.12)">
     <use xlink:href="#DejaVuSans-20"/>
     <use x="31.787109" xlink:href="#DejaVuSans-63"/>
     <use x="86.767578" xlink:href="#DejaVuSans-79"/>
     <use x="145.947266" xlink:href="#DejaVuSans-63"/>
     <use x="200.927734" xlink:href="#DejaVuSans-6c"/>
     <use x="228.710938" xlink:href="#DejaVuSans-65"/>
     <use x="290.234375" xlink:href="#DejaVuSans-73"/>
    </g>
   </g>
   <g id="text_14">
    <!-- historical CO$_2$ level -->
    <g transform="translate(92.15 20.877187)scale(0.18 -0.18)">
     <use transform="translate(0 0.015625)" xlink:href="#DejaVuSans-68"/>
     <use transform="translate(63.378906 0.015625)" xlink:href="#DejaVuSans-69"/>
     <use transform="translate(91.162109 0.015625)" xlink:href="#DejaVuSans-73"/>
     <use transform="translate(143.261719 0.015625)" xlink:href="#DejaVuSans-74"/>
     <use transform="translate(182.470703 0.015625)" xlink:href="#DejaVuSans-6f"/>
     <use transform="translate(243.652344 0.015625)" xlink:href="#DejaVuSans-72"/>
     <use transform="translate(284.765625 0.015625)" xlink:href="#DejaVuSans-69"/>
     <use transform="translate(312.548828 0.015625)" xlink:href="#DejaVuSans-63"/>
     <use transform="translate(367.529297 0.015625)" xlink:href="#DejaVuSans-61"/>
     <use transform="translate(428.808594 0.015625)" xlink:href="#DejaVuSans-6c"/>
     <use transform="translate(456.591797 0.015625)" xlink:href="#DejaVuSans-20"/>
     <use transform="translate(488.378906 0.015625)" xlink:href="#DejaVuSans-43"/>
     <use transform="translate(558.203125 0.015625)" xlink:href="#DejaVuSans-4f"/>
     <use transform="translate(637.871094 -16.390625)scale(0.7)" xlink:href="#DejaVuSans-32"/>
     <use transform="translate(685.141602 0.015625)" xlink:href="#DejaVuSans-20"/>
     <use transform="translate(716.928711 0.015625)" xlink:href="#DejaVuSans-6c"/>
     <use transform="translate(744.711914 0.015625)" xlink:href="#DejaVuSans-65"/>
     <use transform="translate(806.235352 0.015625)" xlink:href="#DejaVuSans-76"/>
     <use transform="translate(865.415039 0.015625)" xlink:href="#DejaVuSans-65"/>
     <use transform="translate(926.938477 0.015625)" xlink:href="#DejaVuSans-6c"/>
    </g>
   </g>
  </g>
  <g id="axes_2">
   <g id="patch_10">
    <path d="M 42.8 88.217188 
L 309.2 88.217188 
L 309.2 37.817188 
L 42.8 37.817188 
z
" style="fill:#ffffff;"/>
   </g>
   <g id="matplotlib.axis_3">
    <g id="xtick_6">
     <g id="line2d_17">
      <defs>
       <path d="M 0 0 
L 0 -3.5 
" id="m375ada497b" style="stroke:#000000;stroke-width:0.8;"/>
      </defs>
      <g>
       <use style="stroke:#000000;stroke-width:0.8;" x="42.8" xlink:href="#m375ada497b" y="88.217188"/>
      </g>
     </g>
     <g id="text_15">
      <!-- 1000 -->
      <defs>
       <path d="M 12.40625 8.296875 
L 28.515625 8.296875 
L 28.515625 63.921875 
L 10.984375 60.40625 
L 10.984375 69.390625 
L 28.421875 72.90625 
L 38.28125 72.90625 
L 38.28125 8.296875 
L 54.390625 8.296875 
L 54.390625 0 
L 12.40625 0 
z
" id="DejaVuSans-31"/>
      </defs>
      <g transform="translate(26.2575 101.595156)scale(0.13 -0.13)">
       <use xlink:href="#DejaVuSans-31"/>
       <use x="63.623047" xlink:href="#DejaVuSans-30"/>
       <use x="127.246094" xlink:href="#DejaVuSans-30"/>
       <use x="190.869141" xlink:href="#DejaVuSans-30"/>
      </g>
     </g>
    </g>
    <g id="xtick_7">
     <g id="line2d_18">
      <g>
       <use style="stroke:#000000;stroke-width:0.8;" x="107.77561" xlink:href="#m375ada497b" y="88.217188"/>
      </g>
     </g>
     <g id="text_16">
      <!-- 1250 -->
      <g transform="translate(91.23311 101.595156)scale(0.13 -0.13)">
       <use xlink:href="#DejaVuSans-31"/>
       <use x="63.623047" xlink:href="#DejaVuSans-32"/>
       <use x="127.246094" xlink:href="#DejaVuSans-35"/>
       <use x="190.869141" xlink:href="#DejaVuSans-30"/>
      </g>
     </g>
    </g>
    <g id="xtick_8">
     <g id="line2d_19">
      <g>
       <use style="stroke:#000000;stroke-width:0.8;" x="172.75122" xlink:href="#m375ada497b" y="88.217188"/>
      </g>
     </g>
     <g id="text_17">
      <!-- 1500 -->
      <g transform="translate(156.20872 101.595156)scale(0.13 -0.13)">
       <use xlink:href="#DejaVuSans-31"/>
       <use x="63.623047" xlink:href="#DejaVuSans-35"/>
       <use x="127.246094" xlink:href="#DejaVuSans-30"/>
       <use x="190.869141" xlink:href="#DejaVuSans-30"/>
      </g>
     </g>
    </g>
    <g id="xtick_9">
     <g id="line2d_20">
      <g>
       <use style="stroke:#000000;stroke-width:0.8;" x="237.726829" xlink:href="#m375ada497b" y="88.217188"/>
      </g>
     </g>
     <g id="text_18">
      <!-- 1750 -->
      <defs>
       <path d="M 8.203125 72.90625 
L 55.078125 72.90625 
L 55.078125 68.703125 
L 28.609375 0 
L 18.3125 0 
L 43.21875 64.59375 
L 8.203125 64.59375 
z
" id="DejaVuSans-37"/>
      </defs>
      <g transform="translate(221.184329 101.595156)scale(0.13 -0.13)">
       <use xlink:href="#DejaVuSans-31"/>
       <use x="63.623047" xlink:href="#DejaVuSans-37"/>
       <use x="127.246094" xlink:href="#DejaVuSans-35"/>
       <use x="190.869141" xlink:href="#DejaVuSans-30"/>
      </g>
     </g>
    </g>
    <g id="xtick_10">
     <g id="line2d_21">
      <g>
       <use style="stroke:#000000;stroke-width:0.8;" x="302.702439" xlink:href="#m375ada497b" y="88.217188"/>
      </g>
     </g>
     <g id="text_19">
      <!-- 2000 -->
      <g transform="translate(286.159939 101.595156)scale(0.13 -0.13)">
       <use xlink:href="#DejaVuSans-32"/>
       <use x="63.623047" xlink:href="#DejaVuSans-30"/>
       <use x="127.246094" xlink:href="#DejaVuSans-30"/>
       <use x="190.869141" xlink:href="#DejaVuSans-30"/>
      </g>
     </g>
    </g>
    <g id="text_20">
     <!-- year (CE) -->
     <defs>
      <path d="M 9.8125 72.90625 
L 55.90625 72.90625 
L 55.90625 64.59375 
L 19.671875 64.59375 
L 19.671875 43.015625 
L 54.390625 43.015625 
L 54.390625 34.71875 
L 19.671875 34.71875 
L 19.671875 8.296875 
L 56.78125 8.296875 
L 56.78125 0 
L 9.8125 0 
z
" id="DejaVuSans-45"/>
     </defs>
     <g transform="translate(145.714062 113.976719)scale(0.13 -0.13)">
      <use xlink:href="#DejaVuSans-79"/>
      <use x="59.179688" xlink:href="#DejaVuSans-65"/>
      <use x="120.703125" xlink:href="#DejaVuSans-61"/>
      <use x="181.982422" xlink:href="#DejaVuSans-72"/>
      <use x="223.095703" xlink:href="#DejaVuSans-20"/>
      <use x="254.882812" xlink:href="#DejaVuSans-28"/>
      <use x="293.896484" xlink:href="#DejaVuSans-43"/>
      <use x="363.720703" xlink:href="#DejaVuSans-45"/>
      <use x="426.904297" xlink:href="#DejaVuSans-29"/>
     </g>
    </g>
   </g>
   <g id="matplotlib.axis_4">
    <g id="ytick_6">
     <g id="line2d_22">
      <g>
       <use style="stroke:#000000;stroke-width:0.8;" x="42.8" xlink:href="#m02280c1143" y="75.617188"/>
      </g>
     </g>
     <g id="text_21">
      <!-- 300 -->
      <g transform="translate(14.48625 80.556172)scale(0.13 -0.13)">
       <use xlink:href="#DejaVuSans-33"/>
       <use x="63.623047" xlink:href="#DejaVuSans-30"/>
       <use x="127.246094" xlink:href="#DejaVuSans-30"/>
      </g>
     </g>
    </g>
    <g id="ytick_7">
     <g id="line2d_23">
      <g>
       <use style="stroke:#000000;stroke-width:0.8;" x="42.8" xlink:href="#m02280c1143" y="59.867188"/>
      </g>
     </g>
     <g id="text_22">
      <!-- 350 -->
      <g transform="translate(14.48625 64.806172)scale(0.13 -0.13)">
       <use xlink:href="#DejaVuSans-33"/>
       <use x="63.623047" xlink:href="#DejaVuSans-35"/>
       <use x="127.246094" xlink:href="#DejaVuSans-30"/>
      </g>
     </g>
    </g>
    <g id="ytick_8">
     <g id="line2d_24">
      <g>
       <use style="stroke:#000000;stroke-width:0.8;" x="42.8" xlink:href="#m02280c1143" y="44.117188"/>
      </g>
     </g>
     <g id="text_23">
      <!-- 400 -->
      <g transform="translate(14.48625 49.056172)scale(0.13 -0.13)">
       <use xlink:href="#DejaVuSans-34"/>
       <use x="63.623047" xlink:href="#DejaVuSans-30"/>
       <use x="127.246094" xlink:href="#DejaVuSans-30"/>
      </g>
     </g>
    </g>
   </g>
   <g id="line2d_25">
    <path clip-path="url(#p4bc03a9064)" d="M 45.399024 82.232188 
L 50.597073 82.232188 
L 51.896585 81.917188 
L 58.394146 81.917188 
L 59.693659 81.602188 
L 64.891707 81.602188 
L 66.19122 81.287188 
L 71.389268 81.287188 
L 72.68878 80.972188 
L 81.785366 80.972188 
L 83.084878 80.657188 
L 90.881951 80.657188 
L 92.181463 80.972188 
L 98.679024 80.972188 
L 99.978537 81.287188 
L 105.176585 81.287188 
L 106.476098 81.602188 
L 109.075122 81.602188 
L 110.374634 81.287188 
L 119.47122 81.287188 
L 120.770732 80.972188 
L 128.567805 80.972188 
L 129.867317 81.287188 
L 133.765854 81.287188 
L 135.065366 81.602188 
L 138.963902 81.602188 
L 140.263415 81.917188 
L 166.253659 81.917188 
L 167.553171 81.602188 
L 171.451707 81.602188 
L 172.75122 81.287188 
L 176.649756 81.287188 
L 177.949268 80.972188 
L 184.446829 80.972188 
L 185.746341 81.287188 
L 188.345366 81.287188 
L 189.644878 81.602188 
L 190.94439 81.602188 
L 194.842927 82.547188 
L 196.142439 82.547188 
L 200.040976 83.492188 
L 207.838049 83.492188 
L 209.137561 83.177188 
L 227.330732 83.177188 
L 228.630244 82.862188 
L 232.52878 82.862188 
L 233.828293 83.177188 
L 236.427317 83.177188 
L 237.726829 82.862188 
L 240.325854 82.862188 
L 241.625366 82.547188 
L 242.924878 82.547188 
L 245.523902 81.917188 
L 246.823415 81.917188 
L 249.422439 81.287188 
L 250.721951 81.287188 
L 252.021463 80.972188 
L 253.320976 80.972188 
L 254.620488 80.657188 
L 262.417561 80.657188 
L 263.717073 80.342188 
L 265.016585 80.342188 
L 271.514146 78.767188 
L 272.813659 78.137188 
L 274.113171 77.822188 
L 275.412683 77.192188 
L 276.712195 76.877188 
L 278.011707 76.247188 
L 279.31122 75.932188 
L 281.910244 74.672188 
L 283.209756 74.357188 
L 285.80878 73.097188 
L 288.407805 72.467188 
L 292.306341 70.577188 
L 294.905366 68.057188 
L 296.204878 66.482188 
L 296.204878 66.482188 
" style="fill:none;stroke:#2ca02c;stroke-linecap:square;stroke-width:2.2;"/>
   </g>
   <g id="line2d_26">
    <path clip-path="url(#p4bc03a9064)" d="M 292.046439 70.583225 
L 292.306341 70.290538 
L 292.566244 70.059013 
L 292.826146 69.804125 
L 293.086049 69.63455 
L 293.345951 69.437938 
L 293.605854 69.3059 
L 293.865756 68.8859 
L 294.125659 68.630225 
L 294.385561 68.3567 
L 294.645463 67.8611 
L 294.905366 67.526938 
L 295.165268 67.326913 
L 295.425171 66.968075 
L 295.685073 66.268775 
L 295.944976 66.090275 
L 296.204878 65.80415 
L 296.46478 65.489413 
L 296.724683 64.938425 
L 296.984585 64.433375 
L 297.244488 64.009175 
L 297.50439 63.431413 
L 297.764293 63.037925 
L 298.024195 62.660713 
L 298.284098 62.141225 
L 298.544 61.624363 
L 298.803902 61.157638 
L 299.063805 60.76415 
L 299.323707 60.203188 
L 299.58361 59.399675 
L 299.843512 58.951063 
L 300.103415 58.54865 
L 300.363317 58.105813 
L 300.62322 57.859588 
L 300.883122 57.649588 
L 301.143024 57.06815 
L 301.402927 56.440775 
L 301.662829 55.885588 
L 301.922732 55.531738 
L 302.182634 54.628738 
L 302.442537 54.09875 
L 302.702439 53.732563 
L 302.962341 53.24615 
L 303.222244 52.591738 
L 303.482146 51.791375 
L 303.742049 51.247738 
L 304.001951 50.5424 
L 304.261854 49.847563 
L 304.521756 49.285288 
L 304.781659 48.7007 
L 305.041561 48.09905 
L 305.301463 47.298688 
L 305.561366 46.7477 
L 305.821268 46.048138 
L 306.081171 45.198688 
L 306.341073 44.553988 
L 306.600976 43.838413 
L 306.860878 42.769775 
L 307.12078 42.042913 
" style="fill:none;stroke:#000000;stroke-linecap:square;stroke-width:2.2;"/>
   </g>
   <g id="patch_11">
    <path d="M 42.8 88.217188 
L 42.8 37.817188 
" style="fill:none;stroke:#000000;stroke-linecap:square;stroke-linejoin:miter;stroke-width:0.8;"/>
   </g>
   <g id="patch_12">
    <path d="M 309.2 88.217188 
L 309.2 37.817188 
" style="fill:none;stroke:#000000;stroke-linecap:square;stroke-linejoin:miter;stroke-width:0.8;"/>
   </g>
   <g id="patch_13">
    <path d="M 42.8 88.217188 
L 309.2 88.217188 
" style="fill:none;stroke:#000000;stroke-linecap:square;stroke-linejoin:miter;stroke-width:0.8;"/>
   </g>
   <g id="patch_14">
    <path d="M 42.8 37.817188 
L 309.2 37.817188 
" style="fill:none;stroke:#000000;stroke-linecap:square;stroke-linejoin:miter;stroke-width:0.8;"/>
   </g>
   <g id="patch_15">
    <path d="M 194.437742 58.84464 
Q 215.161494 67.628147 234.855855 75.97536 
" style="fill:none;opacity:0.7;stroke:#000000;stroke-linecap:round;"/>
    <path d="M 231.372981 71.892519 
L 234.855855 75.97536 
L 229.499858 76.311955 
" style="fill:none;opacity:0.7;stroke:#000000;stroke-linecap:round;"/>
   </g>
   <g id="text_24">
    <!-- Industrial revolution starts -->
    <g transform="translate(94.780488 53.567188)scale(0.12 -0.12)">
     <use xlink:href="#DejaVuSans-49"/>
     <use x="29.492188" xlink:href="#DejaVuSans-6e"/>
     <use x="92.871094" xlink:href="#DejaVuSans-64"/>
     <use x="156.347656" xlink:href="#DejaVuSans-75"/>
     <use x="219.726562" xlink:href="#DejaVuSans-73"/>
     <use x="271.826172" xlink:href="#DejaVuSans-74"/>
     <use x="311.035156" xlink:href="#DejaVuSans-72"/>
     <use x="352.148438" xlink:href="#DejaVuSans-69"/>
     <use x="379.931641" xlink:href="#DejaVuSans-61"/>
     <use x="441.210938" xlink:href="#DejaVuSans-6c"/>
     <use x="468.994141" xlink:href="#DejaVuSans-20"/>
     <use x="500.78125" xlink:href="#DejaVuSans-72"/>
     <use x="541.863281" xlink:href="#DejaVuSans-65"/>
     <use x="603.386719" xlink:href="#DejaVuSans-76"/>
     <use x="662.566406" xlink:href="#DejaVuSans-6f"/>
     <use x="723.748047" xlink:href="#DejaVuSans-6c"/>
     <use x="751.53125" xlink:href="#DejaVuSans-75"/>
     <use x="814.910156" xlink:href="#DejaVuSans-74"/>
     <use x="854.119141" xlink:href="#DejaVuSans-69"/>
     <use x="881.902344" xlink:href="#DejaVuSans-6f"/>
     <use x="943.083984" xlink:href="#DejaVuSans-6e"/>
     <use x="1006.462891" xlink:href="#DejaVuSans-20"/>
     <use x="1038.25" xlink:href="#DejaVuSans-73"/>
     <use x="1090.349609" xlink:href="#DejaVuSans-74"/>
     <use x="1129.558594" xlink:href="#DejaVuSans-61"/>
     <use x="1190.837891" xlink:href="#DejaVuSans-72"/>
     <use x="1231.951172" xlink:href="#DejaVuSans-74"/>
     <use x="1271.160156" xlink:href="#DejaVuSans-73"/>
    </g>
   </g>
  </g>
 </g>
 <defs>
  <clipPath id="pa983050e79">
   <rect height="217.44" width="334.8" x="10.7" y="26.877187"/>
  </clipPath>
  <clipPath id="p4bc03a9064">
   <rect height="50.4" width="266.4" x="42.8" y="37.817188"/>
  </clipPath>
 </defs>
</svg>
